<?xml version="1.0" encoding="UTF-8" standalone="no"?><!DOCTYPE svg PUBLIC "-//W3C//DTD SVG 1.1//EN" "http://www.w3.org/Graphics/SVG/1.1/DTD/svg11.dtd"><svg width="100%" height="100%" viewBox="0 0 3353 2453" version="1.1" xmlns="http://www.w3.org/2000/svg" xmlns:xlink="http://www.w3.org/1999/xlink" xml:space="preserve" xmlns:serif="http://www.serif.com/" style="fill-rule:evenodd;clip-rule:evenodd;stroke-linejoin:round;stroke-miterlimit:2;"><g id="Group_240"><path id="Path_3959-282" d="M2397.242,2355.608l-22.742,-355.625l-0.471,-0.763l-22.958,7.988l-105.671,308.075l-168.004,-119.167l267.679,-194.012l0.254,-0.763l1.525,-0.546l17.254,-12.533l-280.571,-157.304l-68.75,75.554l10.896,70.833l322.567,5.742l0,7.267l-328.671,-5.883l-12.362,-80.313l94.046,-103.333l140.65,-164.079l2.5,6.792l29.788,-32.692l110.938,19.871l0,-4.396l7.267,0.217l0,5.483l164.771,29.496l-153.75,307.5l-22.413,16.25l0,3.85l355.287,-123.825l-42.175,331.321l-301.492,-192.05l-10.608,-5.958l177.775,286.571l-162.558,70.433Zm-14.529,-342.692l21.25,331.938l145.483,-63.133l-166.733,-268.804Zm-292.671,183.225l151.804,107.633l99.312,-289.658l-251.117,182.025Zm299.029,-202.187l7.592,4.25l291.871,185.983l39.229,-308.292l-338.692,118.058Zm-25.792,-26.154l9.117,14.713l1.6,-1.163l10.896,-343.383l-108.029,-19.396l-29.642,32.692l116.058,316.537Zm-273.858,-141.842l271.858,152.567l-4.721,-7.737l-114.717,-313.383l-135.129,148.496l-17.292,20.058Zm302.842,-186.667l-10.879,336.667l16.421,-11.917l148.579,-297.196l-154.121,-27.554Z" style="fill:#090814;fill-rule:nonzero;"/><path id="Path_3960-283" d="M849.1,2354.154l-22.775,-355.767l-0.471,-0.762l-22.958,7.992l-105.633,308.221l-168.004,-119.112l267.608,-194.012l0.254,-0.763l1.525,-0.546l17.254,-12.533l-280.575,-157.325l-68.729,75.554l10.896,70.833l322.642,5.883l0,7.283l-328.671,-5.883l-12.421,-80.438l94.083,-103.383l140.758,-164.192l2.5,6.792l29.787,-32.692l110.646,19.833l0,-4.396l7.267,0.217l0,5.483l164.771,29.496l-153.621,307.346l-22.413,16.25l0,3.85l355.258,-123.796l-42.175,331.321l-301.487,-192.058l-10.608,-5.958l177.775,286.533l-162.483,70.729Zm-14.529,-342.692l21.25,331.938l145.483,-63.133l-166.733,-268.804Zm-292.708,183.188l151.804,107.633l99.312,-289.658l-251.117,182.025Zm299.029,-202.188l7.592,4.25l291.871,185.983l39.229,-308.292l-338.692,118.058Zm-25.792,-26.154l9.117,14.712l1.6,-1.162l10.896,-343.383l-108.029,-19.325l-29.642,32.692l116.058,316.467Zm-273.975,-141.883l271.858,152.567l-4.721,-7.738l-114.717,-313.379l-135.092,148.463l-17.329,20.088Zm302.95,-186.667l-10.867,336.8l16.421,-11.912l148.579,-297.217l-154.133,-27.671Z" style="fill:#090814;fill-rule:nonzero;"/><path id="Rectangle_841" d="M1327.758,1763.188l-48.477,49.125l-155.133,-153.088l48.477,-49.125l155.133,153.088Z" style="fill:#d6d6e3;"/><path id="Path_3961-284" d="M1209.625,1536.842c0,0 90.05,-47.5 124.85,-78.1c20.949,-18.335 43.474,-34.788 67.313,-49.167l112.971,-68.75l236.113,-18.162l10.896,39.958c0,0 18.162,58.121 -163.463,108.975c-181.625,50.854 -272.438,130.771 -272.438,130.771c0,0 -116.242,39.817 -116.242,-65.525Z" style="fill:#452929;fill-rule:nonzero;"/><path id="Path_3962-285" d="M1335.492,1594.492c-6.429,4.904 -9.625,7.737 -9.625,7.737c0,0 -116.25,39.958 -116.25,-65.387c0,0 5.629,-2.979 14.529,-7.954c18.262,29.74 50.754,47.917 85.654,47.917l12.312,0l13.379,17.688Z" style="fill-opacity:0.1;fill-rule:nonzero;"/><path id="Path_3963-286" d="M1758.354,1382.675c-10.1,21.396 -44.933,56.558 -160.05,88.779c-147.5,41.3 -235.133,101.713 -262.812,123.033c-6.429,4.904 -9.625,7.737 -9.625,7.737c0,0 -116.25,39.958 -116.25,-65.387c0,0 5.629,-2.979 14.529,-7.954c26.988,-14.783 84.129,-47.221 110.213,-70.287c20.944,-18.341 43.47,-34.794 67.313,-49.167l112.971,-68.75l42.083,-3.233l194.025,-14.925l10.896,39.958c0,0 2.554,7.808 -3.292,20.196Z" style="fill-opacity:0.05;fill-rule:nonzero;"/><path id="Path_3964-287" d="M1211.442,1513.233l-96.25,63.571l281.883,236.113c0,0 41.413,-25.417 19.617,-54.488c0,0 -72.65,-61.754 -76.283,-148.933l-21.796,-29.058l-12.308,0c-42.58,0.013 -80.755,-27.031 -94.867,-67.204l0.004,0Z" style="fill:#373542;fill-rule:nonzero;"/><path id="Path_3965-288" d="M1758.354,1382.675c-58.121,-28.079 -200,-31.096 -200,-31.096l-1.525,-14.129l194.05,-14.929l10.896,39.958c0,0 2.425,7.808 -3.421,20.196Z" style="fill-opacity:0.1;fill-rule:nonzero;"/><path id="Path_3966-289" d="M1558.35,1344.325c0,0 170.729,3.633 214.317,39.958l-21.783,-439.542l-236.125,0l43.592,399.583Z" style="fill:#f2f2f2;fill-rule:nonzero;"/><path id="Path_3967-290" d="M1558.35,1342.508c0,0 170.729,3.633 214.317,39.958l-21.783,-439.542l-236.125,0l43.592,399.583Z" style="fill-opacity:0.03;fill-rule:nonzero;"/><path id="Path_3968-291" d="M2378.75,1560.888c-38.553,-0.038 -76.935,5.148 -114.096,15.417c-19.166,5.285 -37.933,11.926 -56.158,19.871c-156.033,67.638 -257.499,222.213 -257.499,392.275c0,234.545 193.001,427.546 427.546,427.546c234.545,0 427.546,-193.001 427.546,-427.546c0,-234.479 -192.893,-427.45 -427.371,-427.546l0.033,-0.017Zm-1.454,748.625c-177.03,-0.063 -322.669,-145.753 -322.669,-322.783c0,-126.119 73.917,-241.165 188.627,-293.583c17.043,-7.802 34.741,-14.086 52.887,-18.779c26.483,-6.875 53.734,-10.354 81.095,-10.354c177.055,0 322.75,145.695 322.75,322.75c0,177.019 -145.634,322.697 -322.653,322.75l-0.038,0Z" style="fill:#a7a7ab;fill-rule:nonzero;"/><path id="Path_3969-292" d="M1695.513,1075.371c0,0 427.367,-14.529 436.083,40.721c8.717,55.25 -427.367,31.967 -427.367,31.967c0,0 -34.871,-34.912 -8.717,-72.688Z" style="fill:#373542;fill-rule:nonzero;"/><rect id="Rectangle_843" x="1273.958" y="1296.333" width="75.592" height="657.05" style="fill:#075f12;"/><path id="Path_3971-293" d="M1349.55,1296.296l0,50.6c-25.137,3.271 -50.854,5.342 -75.592,6.137l0,-56.737l75.592,0Z" style="fill-opacity:0.1;fill-rule:nonzero;"/><path id="Path_3972-294" d="M1343.883,1241.846c-10.606,-0.82 -21.158,-2.239 -31.604,-4.25c-40.975,-7.846 -144.283,-24.3 -172.083,3.633c-34.871,34.871 -23.25,95.933 69.779,104.654c93.029,8.721 252.917,-14.529 284.933,-49.438c0.017,-0.15 -57.85,-47.446 -151.025,-54.6Z" style="fill:#373542;fill-rule:nonzero;"/><path id="Path_3973-295" d="M1329.208,1476.579l793.704,-247.121l26.154,61.062l-814.046,279.088l-5.812,-93.029Z" style="fill:#075f12;fill-rule:nonzero;"/><path id="Path_3974-296" d="M1564.704,1866.163l572.737,-564.021l31.967,46.496l-546.583,569.838l-58.121,-52.312Z" style="fill:#075f12;fill-rule:nonzero;"/><path id="Path_3975-297" d="M2296.113,1674.379c-18.147,4.693 -35.845,10.977 -52.887,18.779l-34.725,-97.025c18.225,-7.945 36.992,-14.586 56.158,-19.871l31.454,98.117Z" style="fill-opacity:0.1;fill-rule:nonzero;"/><path id="Path_3976-298" d="M2393.283,1959.175l-40.683,23.25l-283.846,-793.071l-12.713,-35.492l66.875,-37.812l16.746,52.237l253.621,790.888Z" style="fill:#075f12;fill-rule:nonzero;"/><path id="Path_3977-299" d="M2139.663,1168.288l-70.908,21.067l-12.713,-35.492l66.875,-37.812l16.746,52.237Z" style="fill-opacity:0.1;fill-rule:nonzero;"/><path id="Path_3978-300" d="M1707.133,1229.458l398.304,-136.667c0,0 69.779,8.717 43.592,66.875l-401.175,119.167c0,0 -61.025,5.842 -40.721,-49.375Z" style="fill:#373542;fill-rule:nonzero;"/><path id="Path_3979-301" d="M1247.55,1892.683c-14.572,-64.729 -44.072,-125.165 -86.142,-176.471c-81.276,-99.517 -203.173,-157.349 -331.662,-157.349c-234.913,0 -428.217,193.304 -428.217,428.217c0,234.913 193.304,428.217 428.217,428.217c234.913,0 428.217,-193.304 428.217,-428.217c0,-0.094 -0,-0.187 -0,-0.281c0.027,-31.661 -3.467,-63.228 -10.417,-94.117l0.004,-0Zm-418.429,415.375c-176.722,-0.195 -322.032,-145.665 -322.032,-322.387c0,-176.857 145.531,-322.388 322.387,-322.388c176.857,0 322.388,145.531 322.388,322.388c0,19.42 -1.755,38.8 -5.243,57.904c-27.879,152.698 -162.278,264.654 -317.5,264.483Z" style="fill:#a7a7ab;fill-rule:nonzero;"/><path id="Path_3980-302" d="M1257.975,1986.8c-0.002,22.258 -1.723,44.482 -5.146,66.475c-34.883,-2.433 -70.917,-6.067 -106.225,-9.7c7.844,-43.192 6.867,-87.528 -2.871,-130.333c34.4,-7.267 69.525,-14.204 103.817,-20.488c6.945,30.866 10.439,62.408 10.417,94.046l0.008,0Z" style="fill-opacity:0.1;fill-rule:nonzero;"/><path id="Path_3981-303" d="M1349.55,1876.083l0,77.262l-75.592,0l0,-65.383c26.154,-4.542 51.583,-8.575 75.592,-11.879Z" style="fill-opacity:0.1;fill-rule:nonzero;"/><path id="Path_3982-304" d="M861.125,1985.454c0,0 610.55,-159.829 659.954,-98.842c49.404,60.987 101.746,142.429 -52.2,171.492c-153.946,29.062 -619.271,-49.438 -619.271,-49.438l11.517,-23.212Z" style="fill:#075f12;fill-rule:nonzero;"/><path id="Path_3983-305" d="M1161.421,1716.213l-77.592,71.017c-13.74,-17.639 -29.274,-33.804 -46.35,-48.238l72.433,-75.667c18.649,16.125 35.882,33.819 51.508,52.887Z" style="fill-opacity:0.1;fill-rule:nonzero;"/><path id="Path_3984-306" d="M840.783,1953.379l456.425,-476.804l14.583,110.467l-447.758,409.929l-23.25,-43.592Z" style="fill:#075f12;fill-rule:nonzero;"/><circle id="Ellipse_681" cx="834.971" cy="1985.35" r="46.533" style="fill-opacity:0.1;"/><circle id="Ellipse_682" cx="829.121" cy="1985.35" r="46.533" style="fill:#090814;"/><circle id="Ellipse_683" cx="2374.396" cy="1980.987" r="46.533" style="fill-opacity:0.1;"/><circle id="Ellipse_684" cx="2377.3" cy="1986.8" r="46.533" style="fill:#090814;"/><circle id="Ellipse_685" cx="1550.138" cy="1938.85" r="93.029" style="fill-opacity:0.1;"/><circle id="Ellipse_686" cx="1555.988" cy="1938.85" r="93.029" style="fill:#d6d6e3;"/><path id="Rectangle_844" d="M1565.74,1936.879l73.835,98.735c8.17,10.926 5.933,26.429 -4.992,34.599l-0.008,0.006c-10.926,8.17 -26.429,5.933 -34.599,-4.992l-73.835,-98.735c-8.17,-10.926 -5.933,-26.429 4.992,-34.599l0.008,-0.006c10.926,-8.17 26.429,-5.933 34.599,4.992Z" style="fill:#075f12;"/><path id="Path_3985-307" d="M1976.088,646.875l-8.646,109.375c-0.994,13.854 -0.812,27.768 0.546,41.592c1.125,12.242 -0,33.675 -11.988,66.367c-15.392,41.765 -23.347,85.906 -23.504,130.417l0,124.488l-83.55,-14.529c0,0 3.633,-174.363 -10.896,-203.421c-14.529,-29.058 10.896,-286.967 10.896,-286.967l127.142,32.679Z" style="fill:#452929;fill-rule:nonzero;"/><path id="Path_3986-308" d="M1971.8,701.075l-4.358,55.192c-0.981,13.843 -0.786,27.744 0.583,41.554c1.125,12.242 0,33.675 -11.987,66.404c-15.392,41.765 -23.348,85.906 -23.504,130.417l-0,124.487l-83.538,-14.554c0,0 3.633,-174.363 -10.896,-203.421c-10.279,-20.596 -0.546,-155.979 6.029,-233.246c2.725,-31.783 4.867,-53.725 4.867,-53.725l127.138,32.692l-4.333,54.2Z" style="fill:#452929;fill-opacity:0.05;fill-rule:nonzero;"/><path id="Path_3987-309" d="M1562.054,1482.354l-31.421,178.721c-3.962,23.862 -10.04,47.324 -18.162,70.108c-18.417,50.346 -6.667,120.925 2.287,159.429c3.958,17 7.267,27.754 7.267,27.754l-94.446,50.854l-29.058,-21.796l0,-14.542l-3.633,-323.292c-21.796,-50.854 -14.529,-127.138 0,-156.2c4.132,-9.548 7.037,-19.58 8.646,-29.858c4.986,-31.004 8.164,-62.272 9.517,-93.646c1.353,-31.373 58.121,-98.079 127.138,-32.692c25.417,24.083 35.092,55.579 37.125,85.729c3.558,51.625 -15.258,99.429 -15.258,99.429Z" style="fill:#452929;fill-rule:nonzero;"/><path id="Path_3988-310" d="M1577.308,1382.821c-50.383,29.933 -138.037,38.396 -173.779,40.612c4.986,-31.004 8.164,-62.272 9.517,-93.646c1.353,-31.373 58.121,-98.079 127.138,-32.692c25.429,24.083 35.092,55.575 37.125,85.725Z" style="fill-opacity:0.1;fill-rule:nonzero;"/><path id="Path_3989-311" d="M1700.017,1293.467c-38.628,20.57 -75.13,44.905 -108.975,72.65c-58.121,47.221 -203.421,50.854 -203.421,50.854l0,-54.492c3.633,-65.383 -58.121,-138.038 -141.667,-341.458c-53.362,-129.9 -38.579,-203.421 -20.925,-239.746c4.893,-11.027 12.018,-20.922 20.925,-29.058l454.062,87.179l16.25,48.675l34.617,103.892c0,0 -127.138,7.267 -148.933,18.162c-21.796,10.896 -7.267,108.975 -7.267,108.975c-21.808,101.712 105.333,174.367 105.333,174.367Z" style="fill:#f2f2f2;fill-rule:nonzero;"/><path id="Path_3990-312" d="M1976.088,646.875l-4.287,54.196c-63.204,18.162 -108.333,-39.667 -108.333,-39.667c-6.593,1.768 -13.07,3.94 -19.396,6.504c2.725,-31.783 4.867,-53.725 4.867,-53.725l127.15,32.692Z" style="fill-opacity:0.1;fill-rule:nonzero;"/><path id="Path_3992-313" d="M2025.054,505.025c-9.479,73.921 -12.642,167.083 -12.642,167.083c-83.55,65.383 -148.933,-18.162 -148.933,-18.162c-78.912,21.192 -115.996,90.246 -133.458,150.508c-9.359,32.598 -14.558,66.248 -15.475,100.15c-0.917,33.902 -22.083,18.162 -62.771,21.796c-38.467,3.233 -93.608,-6.792 -162.446,-58.121c-141.667,-105.342 -268.804,-76.283 -268.804,-76.283c0,0 25.417,-145.3 83.55,-188.892c58.133,-43.592 101.708,-98.079 174.362,-265.175c72.654,-167.096 221.583,-127.137 221.583,-127.137c0,0 7.267,-32.692 141.667,0c32.735,8.579 63.039,24.633 88.525,46.896c71.485,60.934 107.26,154.231 94.842,247.338Z" style="fill:#075f12;fill-rule:nonzero;"/><path id="Path_3993-314" d="M1890.25,292.704c-0.183,4.833 -0.579,10.208 -1.25,16.2c-7.267,65.383 -14.529,58.121 -94.446,72.65c-49.692,9.046 -75.521,-32.475 -87.942,-65.167c-4.496,-11.843 -7.888,-24.075 -10.133,-36.542l174.358,-29.058c0,0 20.9,-5.854 19.412,41.917Z" style="fill:#452929;fill-rule:nonzero;"/><path id="Path_3994-315" d="M1730.029,804.633c-9.359,32.598 -14.558,66.248 -15.475,100.15c-0.917,33.902 -22.083,18.162 -62.771,21.796c-1.147,-2.314 -2.024,-4.753 -2.617,-7.267c-7.267,-32.692 -61.754,-90.833 -61.754,-90.833c-36.325,-32.692 -43.592,-90.833 -43.592,-90.833l-59.938,-176.175l-19.979,-16.346c0,0 83.55,-65.383 156.2,-10.896c72.65,54.487 50.854,170.729 50.854,170.729l14.529,39.958c15.075,12.75 30.404,35.163 44.542,59.717Z" style="fill-opacity:0.05;fill-rule:nonzero;"/><path id="Path_3995-316" d="M1474.8,541.529l79.917,192.525c0,0 7.267,58.121 43.592,90.833c0,0 54.488,58.121 61.754,90.833c7.267,32.712 108.975,119.875 108.975,119.875c0,0 94.446,87.179 101.712,119.875c0,0 87.179,25.417 76.283,76.283c0,0 65.383,-65.383 0,-127.137c-65.383,-61.754 -152.567,-188.892 -152.567,-188.892c0,0 -50.862,-134.45 -98.083,-174.404l-14.529,-39.958c0,0 21.796,-116.25 -50.854,-170.729c-72.65,-54.479 -156.2,10.896 -156.2,10.896Z" style="fill:#452929;fill-rule:nonzero;"/><path id="Path_3996-317" d="M1522.021,1918.254l-94.463,50.854l-29.042,-21.8l0,-14.529c32.634,-2.319 64.344,-11.888 92.812,-28.008c8.717,-4.942 16.929,-9.808 23.504,-14.096c3.813,16.825 7.188,27.579 7.188,27.579Z" style="fill-opacity:0.1;fill-rule:nonzero;"/><path id="Path_3997-318" d="M1630.996,388.946l50.854,199.788c0,0 -156.2,25.417 -188.892,0c-32.692,-25.417 -94.446,-32.692 -94.446,-32.692c0,0 65.383,-188.892 101.712,-210.688c36.329,-21.796 130.771,43.592 130.771,43.592Z" style="fill-opacity:0.1;fill-rule:nonzero;"/><path id="Path_3998-319" d="M1630.996,381.683l50.854,199.788c0,0 -156.2,25.417 -188.892,0c-32.692,-25.417 -94.446,-32.692 -94.446,-32.692c0,0 65.383,-188.892 101.712,-210.688c36.329,-21.796 130.771,43.592 130.771,43.592Z" style="fill:#075f12;fill-rule:nonzero;"/><path id="Path_3999-320" d="M1890.25,289.075c-23.893,32.981 -62.233,52.55 -102.96,52.55c-29.412,0 -57.931,-10.206 -80.665,-28.867c-4.496,-11.843 -7.888,-24.075 -10.133,-36.542l174.358,-29.058c0,0 20.888,-5.854 19.4,41.917Z" style="fill-opacity:0.1;fill-rule:nonzero;"/><path id="Path_4000-321" d="M1914.333,210.971l0,0c0,69.746 -57.392,127.138 -127.138,127.138c-69.746,0 -127.138,-57.392 -127.138,-127.138l0,-6.321c1.289,-68.857 58.287,-124.798 127.157,-124.798c69.768,0 127.179,57.411 127.179,127.179c0,1.314 -0.02,2.627 -0.061,3.94Z" style="fill:#4a4444;fill-rule:nonzero;"/><path id="Path_4003-322" d="M1320.417,601.467c0,0 94.446,25.417 123.504,90.833c29.058,65.417 107.667,77.337 107.667,77.337" style="fill-opacity:0.05;fill-rule:nonzero;"/><rect id="Rectangle_845" x="1458.454" y="2039.946" width="217.95" height="69.017" style="fill:#d6d6e3;"/><path id="Path_4004-323" d="M1491.179,1911.863c19.508,-10.896 36.617,-21.796 38.104,-26.3c0,0 49.221,51.946 93.067,68.075c14.737,5.448 28.845,12.463 42.083,20.925c17.363,10.896 42.138,23.721 64.621,23.721c0,0 50.854,43.592 -47.221,50.854c-98.075,7.263 -326.908,-18.158 -326.908,-18.158l14.529,-90.833c42.448,2.493 84.725,-7.33 121.725,-28.283Z" style="fill:#373542;fill-rule:nonzero;"/><path id="Path_2204-324" d="M1963.271,79c-10.713,-14.438 -26.104,-24.7 -37.879,-38.279c-5.931,-7.877 -12.304,-15.411 -19.088,-22.567c-13.496,-12.396 -32.367,-17.475 -50.683,-18.104c-40.672,-1.045 -79.494,17.378 -104.404,49.546l-28.717,-16.838l-11.346,29.862c-3.166,-2.753 -7.224,-4.271 -11.42,-4.271c-9.548,0 -17.404,7.857 -17.404,17.404c0,3.033 0.793,6.014 2.299,8.646c-2.279,-7.038 -12.717,-8.533 -18.471,-3.883c-5.409,5.236 -7.805,12.875 -6.358,20.262c2.401,16.441 14.618,29.842 30.767,33.75c12.5,2.783 27.029,-0.142 37.029,7.85c8.017,6.404 10.417,18.067 18.617,24.258c10.079,7.629 24.325,4.1 36.854,5.787c22.525,3.862 38.549,24.559 36.646,47.333c1.533,-7.063 4.445,-13.754 8.571,-19.688c4.31,-5.981 11.772,-8.876 18.987,-7.367c11.413,3.421 13.279,18.975 10.513,30.562c-7.333,30.733 -35.138,80.417 -35.138,80.417c36.096,14.237 79.104,0.775 106.954,-26.25c27.85,-27.025 42.358,-65.279 48.675,-103.567c5.362,-32.479 4.6,-68.442 -15.004,-94.867Z" style="fill:#4c403b;fill-rule:nonzero;"/></g></svg>