<?xml version="1.0" encoding="UTF-8" standalone="no"?><!DOCTYPE svg PUBLIC "-//W3C//DTD SVG 1.1//EN" "http://www.w3.org/Graphics/SVG/1.1/DTD/svg11.dtd"><svg width="100%" height="100%" viewBox="0 0 3312 2564" version="1.1" xmlns="http://www.w3.org/2000/svg" xmlns:xlink="http://www.w3.org/1999/xlink" xml:space="preserve" xmlns:serif="http://www.serif.com/" style="fill-rule:evenodd;clip-rule:evenodd;stroke-linejoin:round;stroke-miterlimit:2;"><path d="M1288.508,1927.396l44.767,37.462l169.017,-158.692l-66.071,-55.288l-147.712,176.517Z" style="fill:#8b4e4e;fill-rule:nonzero;"/><path d="M1420.949,1914.726l-94.803,-65.439l249.617,-395.755c-180.918,-105.157 -305.336,-233.438 -406.855,-374.346c-34.5,-47.555 -55.531,-102.897 -7.401,-138.572c2.25,-1.668 4.56,-3.247 6.929,-4.739c54.883,-34.199 37.068,17.055 112.299,-8.118l67.974,72.512l146.863,142.901l250.505,159.909c50.377,32.158 64.356,99.801 31.222,151.083c-1.75,2.708 -3.613,5.338 -5.59,7.889l-350.759,452.674Z" style="fill:#2f2e41;fill-rule:nonzero;"/><path d="M1294.179,1896.882l78.492,58.102l-26.805,32.03l29.995,108.568c0.626,2.264 0.943,4.602 0.943,6.951c0,14.312 -11.777,26.089 -26.089,26.089c-6.121,0 -12.051,-2.154 -16.745,-6.083l-89.002,-74.484l11.173,-44.521l-32.504,26.669l-33.557,-28.084l104.099,-105.236Z" style="fill:#2f2e41;fill-rule:nonzero;"/><path d="M1184.627,1501.45l14.03,39.233l-484.146,173.132l-14.03,-39.233l484.146,-173.132Z" style="fill:#3f3d56;"/><path d="M1297.853,2171.186l-126.149,-108.923c-9.612,-8.306 -15.145,-20.4 -15.145,-33.103c0,-24.001 19.749,-43.75 43.75,-43.75c10.49,0 20.637,3.773 28.58,10.625l126.149,108.923c9.627,8.306 15.17,20.41 15.17,33.125c0,24.001 -19.749,43.75 -43.75,43.75c-10.501,0 -20.659,-3.781 -28.605,-10.647l0,-0Z" style="fill:#3f3d56;fill-rule:nonzero;"/><path d="M2014.457,912.779c-6.052,2.087 -12.409,3.153 -18.81,3.153c-28.284,0 -52.604,-20.802 -56.988,-48.745l-450.643,-116.04l73.493,-77.112l429.211,126.03c1.722,-0.154 3.45,-0.232 5.18,-0.232c31.817,0 57.998,26.181 57.998,57.998c0,24.817 -15.929,47.009 -39.441,54.949l0,-0Z" style="fill:#8b4e4e;fill-rule:nonzero;"/><path d="M1329.865,373.997c0,0 -73.275,8.49 -71.958,92.929c1.317,84.439 180.937,276.793 208.96,308.662c28.023,31.87 307.684,48.153 307.684,48.153l87.361,-76.816l-259.035,-87.274l-273.012,-285.654Z" style="fill:#facc15;fill-rule:nonzero;"/><path d="M1181.234,770.322l-16.531,77.533c0,0 -30.084,64.529 -24.246,81.769c5.784,17.148 266.178,110.354 266.178,110.354c0,0 22.309,-116.263 59.538,-194.688l-284.939,-74.969Z" style="fill:#8b4e4e;fill-rule:nonzero;"/><path d="M2015.757,1982.996l-150.385,71.848c-5.889,2.814 -12.334,4.274 -18.86,4.274c-24.001,0 -43.75,-19.749 -43.75,-43.75c0,-16.826 9.707,-32.222 24.89,-39.476l150.385,-71.848c5.889,-2.814 12.334,-4.274 18.86,-4.274c24.001,0 43.75,19.749 43.75,43.75c0,16.826 -9.707,32.222 -24.89,39.476Z" style="fill:#3f3d56;fill-rule:nonzero;"/><path d="M2586.203,2556.527c-260.531,0 -474.915,-214.384 -474.915,-474.915c0,-260.531 214.384,-474.915 474.915,-474.915c260.531,0 474.915,214.384 474.915,474.915c-0.294,260.42 -214.496,474.621 -474.915,474.915Zm0,-905.857c-236.408,-0 -430.942,194.534 -430.942,430.942c0,236.408 194.534,430.942 430.942,430.942c236.408,0 430.942,-194.534 430.942,-430.942c-0.267,-236.306 -194.635,-430.674 -430.942,-430.942Z" style="fill:#3f3d56;fill-rule:nonzero;"/><circle cx="2607.121" cy="2114.861" r="66.667" style="fill:#3f3d56;"/><path d="M634.369,2563.001c-246.863,0 -450,-203.137 -450,-450c0,-246.863 203.137,-450 450,-450c246.863,0 450,203.137 450,450c-0.279,246.757 -203.243,449.721 -450,450Zm0,-858.333c-224.005,0 -408.333,184.328 -408.333,408.333c0,224.005 184.328,408.333 408.333,408.333c224.005,0 408.333,-184.328 408.333,-408.333c-0.253,-223.909 -184.424,-408.08 -408.333,-408.333Z" style="fill:#3f3d56;fill-rule:nonzero;"/><circle cx="634.368" cy="2113" r="66.667" style="fill:#3f3d56;"/><circle cx="1538.535" cy="2104.667" r="77.306" style="fill:#3f3d56;"/><path d="M651.488,2108.275l-30.4,-28.496l542.646,-578.887l968.383,-289.821l480.604,843.475l-36.2,20.629l-464.2,-814.683l-925.871,277.096l-534.962,570.688Z" style="fill:#3f3d56;fill-rule:nonzero;"/><rect x="1063.414" y="2081.991" width="409.469" height="41.667" style="fill:#3f3d56;"/><rect x="1154.258" y="1301.392" width="41.667" height="217.847" style="fill:#3f3d56;"/><path d="M2006.112,808.459l135.929,420.921l-39.649,12.804l-135.929,-420.921l39.649,-12.804Z" style="fill:#3f3d56;"/><path d="M1191.765,1491.831l341.667,583.333l-35.955,21.059l-341.667,-583.333l35.955,-21.059Z" style="fill:#3f3d56;"/><path d="M2316.201,1576.791l23.474,34.424l-733.3,500.048l-23.474,-34.424l733.3,-500.048Z" style="fill:#3f3d56;"/><path d="M1255.038,1327.361l-166.667,0c-24.001,0 -43.75,-19.749 -43.75,-43.75c0,-24.001 19.749,-43.75 43.75,-43.75l166.667,0c24.001,0 43.75,19.749 43.75,43.75c0,24.001 -19.749,43.75 -43.75,43.75Z" style="fill:#15803d;fill-rule:nonzero;"/><path d="M2067.538,856.527l-166.667,0c-24.001,0 -43.75,-19.749 -43.75,-43.75c0,-24.001 19.749,-43.75 43.75,-43.75l166.667,0c24.001,0 43.75,19.749 43.75,43.75c0,24.001 -19.749,43.75 -43.75,43.75Z" style="fill:#15803d;fill-rule:nonzero;"/><path d="M1407.901,69.066c67.034,-11.397 130.709,33.774 142.105,100.807c11.397,67.034 -33.774,130.709 -100.807,142.105c-67.034,11.397 -130.709,-33.774 -142.105,-100.807c-11.397,-67.034 33.774,-130.709 100.807,-142.105Z" style="fill:#8b4e4e;"/><path d="M2191.12,1369.137l-139.14,-293.709l1.884,-0.891c10.873,-5.152 22.755,-7.824 34.786,-7.824c31.344,0 60.006,18.139 73.423,46.465l69.57,146.857c5.152,10.873 7.824,22.755 7.824,34.786c0,31.344 -18.139,60.006 -46.465,73.423l-1.882,0.893Z" style="fill:#3f3d56;fill-rule:nonzero;"/><path d="M1765.794,1420.761c-35.87,-0.095 -67.643,-23.897 -77.816,-58.295l-0.59,-1.998l311.715,-91.974l0.59,1.998c2.203,7.466 3.322,15.21 3.322,22.995c0,35.913 -23.812,67.765 -58.258,77.927l-155.857,45.986c-7.501,2.222 -15.283,3.354 -23.106,3.361Z" style="fill:#3f3d56;fill-rule:nonzero;"/><path d="M1805.858,1926.933l56.721,-13.992l-26.221,-230.404l-83.717,20.658l53.217,223.737Z" style="fill:#8b4e4e;fill-rule:nonzero;"/><path d="M1778.995,1860.816l88.52,-41.244l15.352,38.842l109.72,25.46c11.783,2.733 20.195,13.319 20.195,25.414c0,10.685 -6.564,20.336 -16.5,24.263l-107.933,42.66l-33.79,-31.068l7.922,41.292l-40.695,16.085l-42.791,-141.705Z" style="fill:#2f2e41;fill-rule:nonzero;"/><path d="M1865.759,1719.319l-120.943,72.529l-128.991,-455.55c-209.251,-1.784 -402.73,-25.214 -560.7,-97.372c-53.52,-24.234 -77.328,-88.324 -53.175,-143.15c1.129,-2.563 2.353,-5.079 3.674,-7.548c30.751,-56.887 90.366,-90.294 143.264,-149.414l262.399,96.88l-18.803,70.661l296.819,14.899c59.691,2.996 105.328,54.844 101.932,115.805c-0.179,3.219 -0.496,6.426 -0.95,9.622l75.474,472.637Z" style="fill:#2f2e41;fill-rule:nonzero;"/><path d="M1352.669,310.789l80.637,42.163c9.109,3.636 14.945,12.706 14.48,22.503l21.005,84.05l73.905,156.431c0,0 19.257,83.255 -17.493,161.862c-36.75,78.607 -118.082,274.563 -118.082,274.563c-53.048,127.058 -488.469,28.938 -375,-79.167c13.502,-12.863 89.386,-121.514 117.152,-127.759l68.128,-389.857c6.949,-41.651 32.198,-78.074 68.762,-99.196c10.916,-6.17 21.034,-9.824 27.968,-7.959c15.806,3.683 23.276,-32.112 38.537,-37.634Z" style="fill:#facc15;fill-rule:nonzero;"/><path d="M2053.001,827.358c-8.685,4.934 -18.506,7.529 -28.495,7.529c-24.381,0 -46.247,-15.457 -54.381,-38.442l-464.283,-31.398l58.099,-89.286l445.047,45.15c5.106,-1.435 10.385,-2.162 15.689,-2.162c31.817,0 57.998,26.181 57.998,57.998c0,20.971 -11.375,40.371 -29.675,50.612l0,0Z" style="fill:#8b4e4e;fill-rule:nonzero;"/><path d="M1281.185,423.311c0,0 -70.474,21.788 -53.689,104.553c16.785,82.764 228.645,238.901 262.039,265.089c33.394,26.188 311.296,-9.111 311.296,-9.111l71.786,-91.539l-270.649,-38.271l-320.783,-230.721Z" style="fill:#facc15;fill-rule:nonzero;"/><path d="M1559.961,149.765c-18.602,9.164 -39.668,-4.118 -55.945,-17.327l5.825,4.927c-28.24,28.047 -41.166,68.113 -47.278,107.486c-6.119,39.332 -6.434,79.495 -14.246,118.565c-7.819,39.029 -24.467,78.334 -56.069,102.515c-42.337,32.388 -101.204,30.942 -153.664,21.687c-0.699,-0.135 -1.35,-0.235 -2.049,-0.37c13.669,-40.821 18.953,-83.986 15.534,-126.899c-13.592,43.178 -37.084,82.589 -68.598,115.084c-34.813,-9.196 -68.825,-21.194 -101.702,-35.878c-21.273,-9.528 -44.208,-22.619 -50.316,-45.121c-6.121,-22.332 7.317,-45.96 25.464,-60.287c18.147,-14.327 40.522,-21.935 61.257,-32.223c20.702,-10.24 41.143,-24.746 49.251,-46.411c18.703,-49.84 -36.617,-106.241 -15.787,-155.258c10.272,-24.105 35.902,-37.422 60.015,-47.734c36.811,-15.702 74.641,-28.897 113.232,-39.496c33.877,-9.31 69.275,-16.638 103.94,-11.12c34.665,5.518 68.784,26.217 81.577,58.953c20.853,6.81 42.997,14.499 56.513,31.853c13.51,17.314 12.744,47.367 -6.952,57.055Z" style="fill:#2f2e41;fill-rule:nonzero;"/><path d="M2175.963,1127.887c24.805,-9.17 56.273,14.032 70.227,51.779c13.954,37.747 5.144,75.838 -19.661,85.008c-24.805,9.17 -56.273,-14.032 -70.227,-51.779c-13.954,-37.747 -5.144,-75.838 19.661,-85.008Z" style="fill:#ececec;"/></svg>